<?xml version="1.0" encoding="UTF-8"?>
<!DOCTYPE svg PUBLIC "-//W3C//DTD SVG 1.1//EN" "http://www.w3.org/Graphics/SVG/1.1/DTD/svg11.dtd">
<svg version="1.1" xmlns="http://www.w3.org/2000/svg" xmlns:xlink="http://www.w3.org/1999/xlink" x="0" y="0" width="400" height="400" viewBox="0, 0, 400, 400">
  <g id="Layer_2">
    <path d="M90.5,161 C51.564,161 20,129.436 20,90.5 C20,51.564 51.564,20 90.5,20 C129.436,20 161,51.564 161,90.5 C161,129.436 129.436,161 90.5,161 z" fill="#000000"/>
    <path d="M211.644,154.608 C271.311,90.847 289.67,130.085 316.061,154.608 C342.452,179.132 358.516,179.132 342.452,203.656 C326.388,228.179 273.606,246.572 219.676,252.703 C165.747,258.834 100.343,257.607 125.587,222.048 C150.83,186.489 211.644,154.608 211.644,154.608 z" fill="#000000"/>
    <path d="M100,280 L380,280 L380,380 L100,380 L100,280 z" fill="#000000"/>
  </g>
</svg>
