<?xml version="1.0" encoding="UTF-8"?>
<!DOCTYPE svg PUBLIC "-//W3C//DTD SVG 1.1//EN" "http://www.w3.org/Graphics/SVG/1.1/DTD/svg11.dtd">
<svg version="1.1" xmlns="http://www.w3.org/2000/svg" xmlns:xlink="http://www.w3.org/1999/xlink" x="0" y="0" width="400" height="400" viewBox="0, 0, 400, 400">
  <g id="Layer_2">
    <path d="M20,84 C20,81.791 22.089,80 24.667,80 L155.333,80 C157.911,80 160,81.791 160,84 L160,120 L368,120 C374.627,120 380,125.373 380,132 L380,308 C380,314.627 374.627,320 368,320 L32,320 C25.373,320 20,314.627 20,308 L20,84 z M360,200 L40,200 L40,290.4 C40,295.702 44.776,300 50.667,300 L349.333,300 C355.224,300 360,295.702 360,290.4 L360,200 z M140,120 L40,120 L40,149.594 L40,149.6 L40,180 L360,180 L360,149.6 C360,144.298 355.224,140 349.333,140 L150,140 C144.492,139.721 140.091,135.656 140,130 L140.051,129 L140,129 L140,120 z M140,103 C140,101.343 138.508,100 136.667,100 L43.333,100 C41.492,100 40,101.343 40,103 L40,120 L140,120 L140,103 z" fill="#000000"/>
  </g>
</svg>
