<?xml version="1.0" encoding="UTF-8"?>
<!DOCTYPE svg PUBLIC "-//W3C//DTD SVG 1.1//EN" "http://www.w3.org/Graphics/SVG/1.1/DTD/svg11.dtd">
<svg version="1.1" xmlns="http://www.w3.org/2000/svg" xmlns:xlink="http://www.w3.org/1999/xlink" x="0" y="0" width="400" height="400" viewBox="0, 0, 400, 400">
  <g id="Layer_2">
    <path d="M39.2,20 L160.8,20 C171.404,20 180,28.596 180,39.2 L180,160.8 C180,171.404 171.404,180 160.8,180 L39.2,180 C28.596,180 20,171.404 20,160.8 L20,39.2 C20,28.596 28.596,20 39.2,20 z" fill="#000000"/>
    <path d="M239.2,20 L360.8,20 C371.404,20 380,28.596 380,39.2 L380,160.8 C380,171.404 371.404,180 360.8,180 L239.2,180 C228.596,180 220,171.404 220,160.8 L220,39.2 C220,28.596 228.596,20 239.2,20 z" fill="#000000"/>
    <path d="M39.2,220 L160.8,220 C171.404,220 180,228.596 180,239.2 L180,360.8 C180,371.404 171.404,380 160.8,380 L39.2,380 C28.596,380 20,371.404 20,360.8 L20,239.2 C20,228.596 28.596,220 39.2,220 z" fill="#000000"/>
    <path d="M239.2,220 L360.8,220 C371.404,220 380,228.596 380,239.2 L380,360.8 C380,371.404 371.404,380 360.8,380 L239.2,380 C228.596,380 220,371.404 220,360.8 L220,239.2 C220,228.596 228.596,220 239.2,220 z" fill="#000000"/>
  </g>
</svg>
