<?xml version="1.0" encoding="UTF-8"?>
<!DOCTYPE svg PUBLIC "-//W3C//DTD SVG 1.1//EN" "http://www.w3.org/Graphics/SVG/1.1/DTD/svg11.dtd">
<svg version="1.1" xmlns="http://www.w3.org/2000/svg" xmlns:xlink="http://www.w3.org/1999/xlink" x="0" y="0" width="400" height="400" viewBox="0, 0, 400, 400">
  <g id="Layer_2">
    <path d="M341.13,380 L240,380 L240,244 L160,244 L160,380 L58.87,380 L58.87,142.102 L37.694,154.328 L20,123.681 L199.581,20 L200,20.726 L200.419,20 L380,123.681 L362.306,154.328 L341.13,142.102 L341.13,380 z M327.13,134.019 L200,60.62 L72.87,134.019 L72.87,366 L146,366 L146,230 L254,230 L254,366 L327.13,366 L327.13,134.019 z" fill="#000000"/>
    <path d="M240,120 L240,200 L160,200 L160,120 L240,120 z M170,165.5 L170,190 L195.5,190 L195.5,165.5 L170,165.5 z M230,165.5 L205.5,165.5 L205.5,190 L230,190 L230,165.5 z M230,155.5 L230,130 L205.5,130 L205.5,155.5 L230,155.5 z M195.5,130 L170,130 L170,155.5 L195.5,155.5 L195.5,130 z" fill="#000000"/>
  </g>
</svg>
