<?xml version="1.0" encoding="UTF-8"?>
<!DOCTYPE svg PUBLIC "-//W3C//DTD SVG 1.1//EN" "http://www.w3.org/Graphics/SVG/1.1/DTD/svg11.dtd">
<svg version="1.1" xmlns="http://www.w3.org/2000/svg" xmlns:xlink="http://www.w3.org/1999/xlink" x="0" y="0" width="400" height="400" viewBox="0, 0, 400, 400">
  <g id="Layer_2">
    <path d="M182.62,50.515 C171.169,54.645 163.284,62.155 157.088,74.357 C149.954,88.625 149.391,102.518 155.023,126.736 C161.406,154.896 158.966,173.857 149.016,170.666 C146.951,170.102 144.51,170.478 143.759,171.604 C141.506,175.547 135.874,171.792 137.001,167.099 C138.315,161.654 133.622,157.149 129.867,160.34 C126.3,163.344 121.606,157.9 124.798,154.145 C127.426,150.953 122.733,146.448 118.415,148.137 C115.223,149.264 112.032,144.383 112.407,138.938 C112.783,136.122 111.657,135.184 108.277,135.184 C103.772,135.184 101.894,133.118 99.829,126.172 C98.891,123.356 97.576,122.981 93.258,123.919 C88.753,124.858 87.251,124.295 85.561,121.291 C82.933,116.41 80.868,116.41 75.987,121.291 C72.983,124.295 71.669,124.67 69.604,122.981 C66.225,120.165 63.033,122.042 63.033,126.923 C63.033,129.176 61.156,131.241 58.34,132.368 C53.083,134.245 52.52,136.122 55.899,139.501 C57.589,141.191 57.213,142.505 54.773,145.321 C51.581,148.701 51.769,149.076 55.711,152.643 C57.964,154.896 59.278,157.712 58.715,159.401 C57.401,162.781 60.78,165.409 65.474,164.658 C67.351,164.283 68.665,165.221 68.665,166.911 C68.665,170.853 72.044,172.543 75.048,169.915 C76.55,168.788 79.929,168.413 82.558,169.164 C86.5,170.102 87.439,169.727 87.439,166.723 C87.439,163.719 86.5,163.156 81.807,163.907 C77.489,164.47 75.048,163.344 70.543,159.026 C60.405,148.701 64.347,134.245 77.489,134.245 C84.998,134.245 89.316,139.314 98.703,159.214 C103.208,168.976 109.967,179.301 114.848,184.37 C119.354,189.251 123.108,193.381 123.108,193.569 C123.108,193.757 119.541,194.508 115.036,195.071 C100.205,197.324 84.435,206.523 67.727,222.48 C50.643,238.813 44.26,241.254 36.75,233.744 C31.681,228.676 32.057,222.105 37.689,215.159 C43.884,207.837 48.578,206.523 55.336,209.902 C60.217,212.343 60.968,212.343 61.907,209.902 C63.409,206.147 61.344,203.144 58.152,204.458 C56.838,205.021 54.397,204.27 52.895,202.768 C49.704,199.389 46.137,199.201 46.137,202.017 C46.137,203.331 44.072,203.707 40.505,202.956 C35.624,202.017 34.497,202.58 32.996,206.523 C31.869,209.527 29.804,211.216 27.176,211.216 C23.797,211.216 23.421,211.967 24.547,216.848 C25.486,220.979 25.111,222.856 22.858,223.607 C18.728,225.109 19.103,228.488 23.797,232.43 C26.8,235.059 27.176,236.373 25.486,238.438 C23.421,240.878 25.486,243.694 30.179,244.258 C31.306,244.258 33.183,244.633 34.497,244.633 C35.624,244.821 36.75,246.51 36.75,248.576 C36.75,252.706 43.509,255.146 45.011,251.392 C46.325,247.825 52.895,248.012 54.397,251.579 C55.524,254.771 61.156,253.269 61.156,249.702 C61.156,246.323 68.29,244.258 71.293,246.698 C73.171,248.2 74.485,248.012 76.175,245.947 C77.489,244.258 78.052,242.568 77.489,241.817 C75.236,239.564 82.558,235.81 84.998,237.875 C88.377,240.691 93.071,238.25 93.071,233.744 C93.071,229.239 98.327,226.423 100.58,229.99 C102.645,233.369 110.53,230.365 109.028,226.611 C107.902,223.607 110.906,220.603 115.223,220.603 C116.35,220.603 117.476,221.917 117.476,223.419 C117.476,225.109 119.166,226.235 122.17,226.235 C125.173,226.235 126.863,225.109 126.863,223.419 C126.863,221.729 128.553,220.603 131.556,220.603 C137.564,220.603 137.564,222.48 131.369,228.3 C125.361,233.744 117.101,250.265 113.722,262.843 C107.151,287.624 97.013,296.073 86.5,285.372 C79.929,278.989 80.305,270.728 87.439,263.407 C91.944,259.089 94.385,257.962 98.703,258.526 C102.833,259.089 103.772,258.713 102.457,257.211 C101.519,255.897 101.143,254.583 101.707,254.02 C102.082,253.457 101.331,252.518 99.641,251.955 C98.14,251.204 96.825,251.579 96.825,252.706 C96.825,254.02 94.573,254.395 90.442,253.644 C84.623,252.518 83.872,252.893 83.309,256.648 C82.933,259.464 81.431,260.966 78.991,260.966 C75.987,260.966 75.424,262.092 75.799,266.223 C76.175,269.414 75.236,271.667 73.359,272.418 C69.792,273.92 69.792,278.238 73.359,281.992 C75.424,283.87 75.799,285.559 74.485,287.061 C72.232,289.69 74.86,294.758 77.676,293.069 C79.929,291.755 84.435,296.823 82.933,299.264 C81.431,301.705 87.626,303.77 90.067,301.329 C93.071,298.325 98.703,299.076 98.703,302.456 C98.703,304.521 99.641,305.084 101.707,304.333 C103.396,303.77 105.086,303.206 105.461,303.206 C105.837,303.206 106.212,301.892 106.212,300.39 C106.212,297.574 107.151,297.199 115.599,296.823 C118.978,296.636 120.292,295.697 119.917,293.069 C119.541,288 123.296,283.494 127.802,283.494 C130.805,283.494 131.556,282.18 131.556,276.924 C131.556,271.292 132.12,270.353 135.687,270.541 C140.192,270.728 144.135,263.594 140.192,262.28 C138.69,261.717 138.69,260.591 140.192,257.962 C141.506,255.522 143.384,254.583 145.449,255.334 C149.954,256.648 154.46,251.579 151.456,248.2 C149.954,246.135 150.33,244.821 152.958,242.38 C156.15,239.564 156.525,239.564 157.652,242.193 C159.153,246.51 166.663,241.629 165.161,237.124 C163.471,231.304 167.789,233.369 169.667,239.377 C171.356,244.07 171.169,245.009 167.977,245.947 C163.659,247.449 163.096,254.395 167.414,254.395 C172.107,254.395 169.854,262.656 164.973,263.407 C159.904,264.158 157.652,269.602 161.594,271.667 C163.847,272.981 164.035,274.108 162.345,277.111 C161.219,279.176 159.153,280.491 157.839,279.927 C153.897,278.425 150.33,283.87 152.958,287.061 C155.962,290.628 153.334,296.26 149.204,295.134 C145.261,294.007 142.821,298.889 145.637,302.268 C148.265,305.459 146.2,310.153 141.694,311.279 C137.376,312.405 137.001,317.85 140.943,319.352 C144.51,320.854 144.51,325.735 140.943,328.363 C137.939,330.616 139.066,333.056 144.698,336.248 C146.763,337.374 148.453,340.378 148.453,342.819 C148.453,346.761 149.204,347.324 154.648,346.761 C158.966,346.573 160.655,347.136 160.655,349.202 C160.655,352.956 165.724,352.769 169.479,349.014 C171.356,347.136 173.046,346.761 174.36,348.075 C176.988,350.703 181.306,348.451 181.306,344.32 C181.306,342.068 183.184,340.003 186,338.876 C190.505,337.187 192.57,333.244 188.816,333.244 C186,333.244 186.563,330.24 189.754,326.861 C191.256,325.359 192.57,323.294 192.57,322.355 C192.57,321.229 191.256,320.103 189.754,319.352 C188.252,318.788 186.938,316.723 186.938,314.846 C186.938,310.34 185.436,308.839 182.057,310.153 C180.18,310.904 179.992,312.03 181.306,314.471 C186.938,324.984 178.866,338.876 167.226,338.876 C155.587,338.876 151.456,327.049 158.778,314.846 C160.843,311.467 167.038,303.394 172.483,297.011 C177.927,290.628 184.31,282.368 186.563,278.613 C191.632,270.353 198.202,251.767 198.202,245.572 C198.202,243.319 199.141,241.254 200.08,241.254 C201.206,241.254 201.957,243.319 201.957,245.572 C201.957,251.767 208.528,270.353 213.597,278.613 C215.849,282.368 222.232,290.628 227.677,297.011 C245.324,317.85 249.266,328.926 241.757,335.685 C229.742,346.573 210.968,329.114 218.853,314.471 C220.167,312.03 219.98,310.904 218.102,310.153 C214.723,308.839 213.221,310.34 213.221,314.846 C213.221,316.723 211.907,318.788 210.405,319.352 C208.903,320.103 207.589,321.229 207.589,322.355 C207.589,323.294 208.903,325.359 210.405,326.861 C213.597,330.24 214.16,333.244 211.344,333.244 C207.589,333.244 209.654,337.187 214.16,338.876 C216.976,340.003 218.853,342.068 218.853,344.32 C218.853,348.451 223.171,350.703 225.799,348.075 C227.114,346.761 228.803,347.136 230.681,349.014 C234.435,352.769 239.504,352.956 239.504,349.202 C239.504,347.136 241.194,346.573 245.699,346.761 C250.956,347.324 251.707,346.761 251.707,342.819 C251.707,340.378 253.396,337.374 255.462,336.248 C261.094,333.056 262.22,330.616 259.216,328.363 C255.649,325.735 255.649,320.854 259.216,319.352 C263.159,317.85 262.783,312.405 258.465,311.279 C253.96,310.153 251.895,305.459 254.523,302.268 C257.339,298.889 254.898,294.007 250.956,295.134 C246.826,296.26 244.197,290.628 247.201,287.061 C249.83,283.87 246.263,278.425 242.32,279.927 C241.006,280.491 238.941,279.176 237.814,277.111 C236.125,274.108 236.313,272.981 238.565,271.667 C242.508,269.602 240.255,263.782 235.562,263.782 C230.493,263.782 228.615,258.15 232.558,255.334 C236.688,252.33 236.688,248.951 232.746,245.947 C229.366,243.507 230.305,233.744 234.06,233.744 C235.186,233.744 235.562,235.246 234.998,237.124 C233.497,241.629 241.006,246.51 242.508,242.193 C243.634,239.564 244.01,239.564 247.201,242.38 C249.83,244.821 250.205,246.135 248.703,248.2 C245.699,251.579 250.205,256.648 254.711,255.334 C256.776,254.583 258.653,255.522 259.967,257.962 C261.469,260.591 261.469,261.717 259.967,262.28 C256.025,263.594 259.967,270.728 264.473,270.541 C268.04,270.353 268.603,271.292 268.603,276.924 C268.603,282.18 269.354,283.494 272.358,283.494 C276.863,283.494 280.618,288 280.243,293.069 C279.867,295.697 281.181,296.636 284.561,296.823 C293.009,297.199 293.947,297.574 293.947,300.203 C293.947,301.705 295.261,303.394 296.951,303.957 C301.081,305.647 301.457,305.459 301.457,302.268 C301.457,299.076 307.276,298.513 310.092,301.329 C312.533,303.77 318.728,301.705 317.226,299.264 C315.725,296.823 320.23,291.755 322.483,293.069 C325.299,294.758 327.927,289.69 325.674,287.061 C324.36,285.559 324.736,283.87 326.801,281.992 C330.368,278.238 330.368,273.92 326.801,272.418 C324.924,271.667 323.985,269.414 324.36,266.223 C324.736,262.092 324.173,260.966 321.169,260.966 C318.728,260.966 317.226,259.464 316.851,256.648 C316.288,252.893 315.537,252.518 309.717,253.644 C305.587,254.395 303.334,254.02 303.334,252.706 C303.334,251.579 302.02,251.204 300.518,251.955 C298.828,252.518 298.077,253.457 298.453,254.02 C299.016,254.583 298.641,255.897 297.702,257.211 C296.388,258.713 297.326,259.089 301.457,258.526 C305.775,257.962 308.215,259.089 312.721,263.407 C319.855,270.728 320.23,278.989 313.659,285.372 C303.146,296.073 293.009,287.624 286.438,262.843 C283.059,250.265 274.798,233.744 268.791,228.3 C262.595,222.48 262.595,220.603 268.603,220.603 C271.607,220.603 273.296,221.729 273.296,223.419 C273.296,225.109 274.986,226.235 277.99,226.235 C280.994,226.235 282.683,225.109 282.683,223.419 C282.683,221.917 283.81,220.603 285.124,220.603 C289.254,220.603 292.258,223.607 291.131,226.611 C289.629,230.365 297.514,233.369 299.579,229.99 C301.832,226.423 307.089,229.239 307.089,233.744 C307.089,238.25 311.782,240.691 315.161,237.875 C317.602,235.81 324.924,239.564 322.671,241.817 C322.108,242.568 322.671,244.258 323.985,245.947 C325.674,248.012 326.989,248.2 328.866,246.698 C331.87,244.258 339.004,246.323 339.004,249.702 C339.004,253.269 344.636,254.771 345.762,251.579 C347.264,248.012 353.835,247.825 355.149,251.392 C356.651,255.146 363.409,252.706 363.409,248.576 C363.409,246.51 364.536,244.821 365.85,244.633 C366.976,244.633 369.041,244.258 369.98,244.258 C374.673,243.694 376.738,240.878 374.673,238.438 C372.984,236.373 373.359,235.059 376.363,232.43 C381.056,228.488 381.432,225.109 377.302,223.607 C375.049,222.856 374.673,220.979 375.612,216.848 C376.738,211.967 376.363,211.216 372.984,211.216 C370.355,211.216 368.29,209.527 367.164,206.523 C365.662,202.58 364.536,202.017 359.655,202.956 C356.088,203.707 354.022,203.331 354.022,202.017 C354.022,199.201 350.456,199.389 347.264,202.768 C345.762,204.27 343.322,205.021 342.007,204.458 C338.816,203.144 336.751,206.147 338.253,209.902 C339.191,212.343 339.942,212.343 344.823,209.902 C351.582,206.523 356.275,207.837 362.471,215.159 C368.103,222.105 368.478,228.676 363.409,233.744 C355.9,241.254 349.517,238.813 332.433,222.48 C315.725,206.523 299.955,197.324 285.124,195.071 C280.618,194.508 277.051,193.757 277.051,193.569 C277.051,193.381 280.806,189.251 285.311,184.37 C290.193,179.301 296.951,168.976 301.457,159.214 C311.031,138.938 315.161,134.245 323.046,134.245 C335.812,134.245 339.567,148.888 329.617,159.026 C325.111,163.344 322.671,164.47 318.353,163.907 C313.659,163.156 312.721,163.719 312.721,166.723 C312.721,169.727 313.659,170.102 317.602,169.164 C320.23,168.413 323.609,168.788 325.111,169.915 C328.115,172.543 331.494,170.853 331.494,166.911 C331.494,165.221 332.808,164.283 334.874,164.658 C339.379,165.409 342.758,162.781 341.444,159.401 C340.881,157.712 342.195,154.896 344.448,152.643 C348.39,149.076 348.578,148.701 345.387,145.321 C342.946,142.505 342.571,141.191 344.26,139.501 C347.639,136.122 347.076,134.245 341.82,132.368 C339.004,131.241 337.126,129.176 337.126,126.923 C337.126,122.042 333.935,120.165 330.556,122.981 C328.491,124.67 327.176,124.295 324.173,121.291 C319.292,116.41 317.226,116.41 314.598,121.291 C312.909,124.295 311.407,124.858 306.901,123.919 C302.583,122.981 301.269,123.356 300.33,126.172 C298.265,133.118 296.388,135.184 291.882,135.184 C288.503,135.184 287.377,136.122 287.752,138.938 C288.127,144.383 284.936,149.264 281.744,148.137 C277.427,146.448 272.733,150.953 275.361,154.145 C278.553,157.9 273.86,163.344 270.293,160.34 C266.538,157.149 261.845,161.654 263.159,167.099 C264.285,171.604 258.653,175.547 256.4,171.792 C255.837,170.666 253.209,170.102 250.768,170.29 C241.006,171.416 238.753,154.333 245.136,126.736 C250.768,102.518 250.205,88.625 243.071,74.357 C234.06,56.523 220.355,48.075 200.08,48.075 C194.448,48.075 186.563,49.201 182.62,50.515 z M182.245,148.137 C185.436,150.578 187.314,153.206 186.563,153.957 C185.061,155.459 175.299,150.578 172.107,146.635 C167.977,141.754 175.674,142.881 182.245,148.137 z M228.052,146.635 C224.861,150.578 215.099,155.459 213.597,153.957 C211.719,152.08 222.983,143.632 227.114,143.632 C230.117,143.632 230.117,144.007 228.052,146.635 z" fill="#000000" id="svg_2"/>
  </g>
</svg>
