<?xml version="1.0" encoding="UTF-8"?>
<!DOCTYPE svg PUBLIC "-//W3C//DTD SVG 1.1//EN" "http://www.w3.org/Graphics/SVG/1.1/DTD/svg11.dtd">
<svg version="1.1" xmlns="http://www.w3.org/2000/svg" xmlns:xlink="http://www.w3.org/1999/xlink" x="0" y="0" width="400" height="400" viewBox="0, 0, 400, 400">
  <g id="Layer_1">
    <path d="M80,80 L380,80 L380,120 L80,120 L80,80 z" fill="#000000"/>
    <path d="M40,120 C28.954,120 20,111.046 20,100 C20,88.954 28.954,80 40,80 C51.046,80 60,88.954 60,100 C60,111.046 51.046,120 40,120 z" fill="#000000"/>
    <path d="M80,180 L380,180 L380,220 L80,220 L80,180 z" fill="#000000"/>
    <path d="M80,280 L380,280 L380,320 L80,320 L80,280 z" fill="#000000"/>
    <path d="M40,220 C28.954,220 20,211.046 20,200 C20,188.954 28.954,180 40,180 C51.046,180 60,188.954 60,200 C60,211.046 51.046,220 40,220 z" fill="#000000"/>
    <path d="M40,320 C28.954,320 20,311.046 20,300 C20,288.954 28.954,280 40,280 C51.046,280 60,288.954 60,300 C60,311.046 51.046,320 40,320 z" fill="#000000"/>
  </g>
</svg>
