<?xml version="1.0" encoding="UTF-8"?>
<!DOCTYPE svg PUBLIC "-//W3C//DTD SVG 1.1//EN" "http://www.w3.org/Graphics/SVG/1.1/DTD/svg11.dtd">
<svg version="1.1" xmlns="http://www.w3.org/2000/svg" xmlns:xlink="http://www.w3.org/1999/xlink" x="0" y="0" width="400" height="400" viewBox="0, 0, 400, 400">
  <g id="Layer_2">
    <g>
      <path d="M368,60 C374.627,60 380,64.925 380,71 L380,269 C380,275.075 374.627,280 368,280 L135,280 L60,340 L60,280 L32,280 C25.373,280 20,275.075 20,269 L20,71 C20,64.925 25.373,60 32,60 L368,60 z M80,260 L80,300 L130,260 L349.333,260 C355.224,260 360,255.971 360,251 L360,89 C360,84.029 355.224,80 349.333,80 L50.667,80 C44.776,80 40,84.029 40,89 L40,251 C40,255.971 44.776,260 50.667,260 L80,260 z" fill="#000000"/>
      <path d="M80,100 L340,100 L340,120 L80,120 L80,100 z" fill="#000000"/>
      <path d="M200,140 L340,140 L340,160 L200,160 L200,140 z" fill="#000000"/>
      <path d="M80,180 L340,180 L340,200 L80,200 L80,180 z" fill="#000000"/>
      <path d="M120,220 L340,220 L340,240 L120,240 L120,220 z" fill="#000000"/>
    </g>
  </g>
</svg>
